<?xml version="1.0" standalone="no"?>
<!DOCTYPE svg PUBLIC "-//W3C//DTD SVG 20010904//EN"
 "http://www.w3.org/TR/2001/REC-SVG-20010904/DTD/svg10.dtd">
<svg version="1.0" xmlns="http://www.w3.org/2000/svg"
 width="320.000000pt" height="320.000000pt" viewBox="0 0 320.000000 320.000000"
 preserveAspectRatio="xMidYMid meet">
<metadata>
Created by potrace 1.14, written by Peter Selinger 2001-2017
</metadata>
<g transform="translate(0.000000,320.000000) scale(0.100000,-0.100000)"
fill="#000000" stroke="none">
<path d="M1687 3143 c-2 -5 -4 -170 -3 -368 l1 -360 348 -3 c191 -1 347 1 347
5 0 9 -52 89 -72 113 -7 8 -24 31 -38 51 -93 136 -265 312 -475 489 -27 23
-60 51 -73 61 -25 21 -29 22 -35 12z"/>
<path d="M1286 3132 c-3 -3 -18 -6 -33 -8 -56 -5 -109 -15 -168 -30 -33 -9
-68 -18 -77 -19 -38 -8 -207 -70 -276 -101 -41 -19 -76 -34 -79 -34 -11 0
-268 -154 -283 -170 -3 -3 -23 -18 -45 -35 -59 -44 -155 -133 -211 -196 -91
-103 -103 -117 -97 -123 3 -3 154 -5 335 -5 329 -1 330 -1 349 22 10 12 18 26
19 31 0 5 33 54 72 110 130 181 303 365 481 509 32 26 56 47 55 48 -21 5 -38
6 -42 1z"/>
<path d="M1495 3117 c-166 -121 -421 -362 -512 -483 -12 -16 -31 -40 -42 -54
-31 -37 -33 -40 -73 -102 -21 -32 -38 -60 -38 -62 0 -3 158 -5 350 -5 l350 1
0 364 c0 200 -1 364 -2 364 -2 0 -16 -11 -33 -23z"/>
<path d="M1910 3122 c1 -4 26 -27 57 -52 56 -45 198 -183 263 -256 92 -102
240 -301 240 -322 0 -6 8 -16 18 -21 9 -6 14 -11 9 -11 -4 0 0 -11 9 -25 l16
-24 334 0 334 0 -47 60 c-113 144 -307 304 -508 419 -53 31 -262 130 -268 128
-2 -1 -131 39 -157 49 -22 9 -32 11 -65 18 -16 3 -47 10 -68 16 -21 6 -50 12
-65 14 -88 13 -102 14 -102 7z"/>
<path d="M1649 2145 c-268 -54 -429 -367 -358 -693 24 -111 70 -200 138 -271
164 -170 432 -177 593 -17 62 62 62 64 3 132 l-52 62 -39 -41 c-58 -60 -123
-86 -203 -83 -176 8 -293 165 -285 381 3 88 9 117 39 181 84 187 306 233 445
94 l42 -42 27 30 c15 16 39 44 54 63 l26 33 -32 40 c-86 108 -248 162 -398
131z"/>
<path d="M139 2123 c-1 -10 -2 -251 -3 -535 -1 -343 2 -519 9 -522 6 -2 42 -3
80 -2 l70 1 2 328 c0 181 3 330 5 333 2 2 64 -119 137 -270 l133 -274 31 3
c18 2 35 3 40 4 4 1 27 43 51 94 24 50 78 164 121 252 42 88 82 171 87 185 6
14 12 21 14 15 2 -5 5 -158 6 -340 l3 -330 78 -1 77 0 0 30 c1 44 1 347 1 724
l-1 323 -70 -3 -70 -3 -162 -342 c-89 -189 -164 -343 -168 -343 -3 0 -15 19
-25 43 -10 23 -70 147 -132 276 -62 129 -128 265 -145 303 l-32 68 -68 0 c-58
0 -68 -3 -69 -17z"/>
<path d="M2290 1603 l0 -533 99 0 98 0 1 133 c0 72 1 141 1 153 1 20 6 21 159
22 185 0 276 18 362 68 32 19 70 48 86 66 124 147 107 402 -35 521 -38 31
-127 74 -171 82 -18 3 -38 9 -43 12 -6 3 -133 7 -284 7 l-273 2 0 -533z m530
352 c105 -28 149 -78 157 -178 9 -109 -41 -184 -142 -218 -25 -8 -98 -13 -192
-14 -134 -2 -153 0 -154 14 -1 20 -1 394 0 402 2 12 282 7 331 -6z"/>
<path d="M10 791 c0 -10 60 -83 124 -150 209 -217 479 -383 789 -485 76 -25
142 -45 145 -45 4 1 9 0 12 -1 10 -3 45 -11 77 -15 17 -3 62 -11 100 -19 37
-8 70 -12 73 -9 3 2 -8 16 -25 30 -118 100 -320 297 -366 358 -13 17 -33 40
-46 52 -13 12 -23 24 -23 27 0 3 -27 41 -60 84 -33 44 -60 83 -60 87 0 5 -7
17 -17 27 -9 10 -21 28 -27 40 -11 22 -12 22 -354 22 -188 1 -342 -1 -342 -3z"/>
<path d="M842 776 c6 -11 19 -29 29 -40 11 -11 19 -24 19 -29 0 -4 6 -14 13
-22 6 -7 21 -25 32 -41 63 -89 273 -312 375 -399 145 -123 190 -156 191 -138
1 22 1 641 0 668 -1 20 -8 20 -335 20 -327 0 -334 0 -324 -19z"/>
<path d="M1679 792 l-26 -3 -1 -350 c0 -192 2 -349 5 -349 7 0 232 179 263
210 3 3 41 39 85 80 79 75 122 121 202 216 62 73 143 187 138 193 -5 5 -624 8
-666 3z"/>
<path d="M2469 760 c-13 -19 -26 -39 -28 -45 -6 -14 -82 -115 -155 -204 -88
-108 -249 -265 -383 -376 -40 -32 -73 -62 -73 -66 0 -10 93 2 220 27 14 3 39
7 55 10 32 6 237 70 270 84 11 5 62 27 113 49 119 51 283 150 386 231 132 104
335 319 304 321 -7 0 -164 2 -349 2 l-337 2 -23 -35z"/>
</g>
</svg>
